<svg xmlns="http://www.w3.org/2000/svg" xmlns:xlink="http://www.w3.org/1999/xlink" width="500" zoomAndPan="magnify" viewBox="0 0 375 374.999991" height="500" preserveAspectRatio="xMidYMid meet" version="1.0"><defs><g/><clipPath id="def7a7484c"><path d="M 0 224.925781 L 375 224.925781 L 375 253.128906 L 0 253.128906 Z M 0 224.925781 " clip-rule="nonzero"/></clipPath></defs><g fill="#2b2b2b" fill-opacity="1"><g transform="translate(102.667043, 291.030193)"><g><path d="M 23.828125 3.78125 C 17.222656 3.78125 11.953125 2.285156 8.015625 -0.703125 C 3.296875 -4.316406 0.9375 -8.957031 0.9375 -14.625 C 0.9375 -17.925781 2.3125 -20.71875 5.0625 -23 C 7.820312 -25.28125 10.773438 -26.421875 13.921875 -26.421875 C 18.796875 -26.421875 22.253906 -24.53125 24.296875 -20.75 L 28.78125 -9.671875 C 30.507812 -6.054688 32.945312 -4.25 36.09375 -4.25 C 41.4375 -4.25 44.109375 -9.359375 44.109375 -19.578125 L 44.109375 -134.90625 C 44.109375 -143.238281 42.457031 -148.859375 39.15625 -151.765625 C 35.851562 -154.679688 29.957031 -156.140625 21.46875 -156.140625 L 21.46875 -160.390625 L 91.28125 -160.390625 L 91.28125 -156.140625 C 82.789062 -156.140625 76.894531 -154.679688 73.59375 -151.765625 C 70.289062 -148.859375 68.640625 -143.238281 68.640625 -134.90625 L 68.640625 -51.421875 C 68.640625 -33.335938 64.628906 -19.613281 56.609375 -10.25 C 48.585938 -0.894531 37.660156 3.78125 23.828125 3.78125 Z M 23.828125 3.78125 "/></g></g></g><g clip-path="url(#def7a7484c)"><path fill="#ffffff" d="M 0 224.925781 L 374.984375 224.925781 L 374.984375 253.128906 L 0 253.128906 Z M 0 224.925781 " fill-opacity="1" fill-rule="nonzero"/></g><g fill="#2b2b2b" fill-opacity="1"><g transform="translate(142.200636, 218.550497)"><g><path d="M 84.90625 3.78125 L 24.0625 -136.328125 C 20.914062 -143.554688 17.53125 -148.664062 13.90625 -151.65625 C 10.289062 -154.644531 5.65625 -156.140625 0 -156.140625 L 0 -160.390625 L 65.5625 -160.390625 L 65.5625 -156.140625 C 53.925781 -156.140625 48.109375 -152.441406 48.109375 -145.046875 C 48.109375 -142.378906 49.210938 -138.210938 51.421875 -132.546875 L 94.578125 -32.78125 L 134.203125 -130.90625 C 136.085938 -135.457031 137.03125 -139.46875 137.03125 -142.9375 C 137.03125 -151.738281 131.53125 -156.140625 120.53125 -156.140625 L 120.53125 -160.390625 L 170.046875 -160.390625 L 170.046875 -156.140625 C 160.460938 -156.140625 152.050781 -147.097656 144.8125 -129.015625 L 91.046875 3.78125 Z M 84.90625 3.78125 "/></g></g></g><g fill="#2b2b2b" fill-opacity="1"><g transform="translate(109.831154, 243.334495)"><g><path d="M 3.359375 0.140625 C 2.628906 0.140625 1.953125 -0.0078125 1.328125 -0.3125 C 0.710938 -0.625 0.21875 -1.050781 -0.15625 -1.59375 L 0.84375 -2.765625 C 1.507812 -1.816406 2.347656 -1.34375 3.359375 -1.34375 C 4.035156 -1.34375 4.546875 -1.546875 4.890625 -1.953125 C 5.242188 -2.367188 5.421875 -2.976562 5.421875 -3.78125 L 5.421875 -10.5625 L 1.0625 -10.5625 L 1.0625 -12.046875 L 7.125 -12.046875 L 7.125 -3.875 C 7.125 -2.539062 6.804688 -1.535156 6.171875 -0.859375 C 5.535156 -0.191406 4.597656 0.140625 3.359375 0.140625 Z M 3.359375 0.140625 "/></g></g></g><g fill="#2b2b2b" fill-opacity="1"><g transform="translate(121.337843, 243.334495)"><g><path d="M 6.796875 0.140625 C 5.191406 0.140625 3.941406 -0.316406 3.046875 -1.234375 C 2.148438 -2.160156 1.703125 -3.484375 1.703125 -5.203125 L 1.703125 -12.046875 L 3.421875 -12.046875 L 3.421875 -5.265625 C 3.421875 -2.679688 4.550781 -1.390625 6.8125 -1.390625 C 7.914062 -1.390625 8.757812 -1.707031 9.34375 -2.34375 C 9.9375 -2.988281 10.234375 -3.960938 10.234375 -5.265625 L 10.234375 -12.046875 L 11.890625 -12.046875 L 11.890625 -5.203125 C 11.890625 -3.460938 11.441406 -2.132812 10.546875 -1.21875 C 9.660156 -0.3125 8.410156 0.140625 6.796875 0.140625 Z M 6.796875 0.140625 "/></g></g></g><g fill="#2b2b2b" fill-opacity="1"><g transform="translate(137.633264, 243.334495)"><g><path d="M 5.328125 0.140625 C 4.410156 0.140625 3.53125 0 2.6875 -0.28125 C 1.84375 -0.5625 1.179688 -0.925781 0.703125 -1.375 L 1.34375 -2.71875 C 1.800781 -2.300781 2.390625 -1.960938 3.109375 -1.703125 C 3.828125 -1.453125 4.566406 -1.328125 5.328125 -1.328125 C 6.316406 -1.328125 7.054688 -1.492188 7.546875 -1.828125 C 8.046875 -2.171875 8.296875 -2.625 8.296875 -3.1875 C 8.296875 -3.601562 8.160156 -3.9375 7.890625 -4.1875 C 7.617188 -4.445312 7.285156 -4.644531 6.890625 -4.78125 C 6.492188 -4.925781 5.9375 -5.082031 5.21875 -5.25 C 4.3125 -5.46875 3.578125 -5.6875 3.015625 -5.90625 C 2.460938 -6.125 1.988281 -6.457031 1.59375 -6.90625 C 1.195312 -7.363281 1 -7.976562 1 -8.75 C 1 -9.394531 1.164062 -9.972656 1.5 -10.484375 C 1.84375 -11.003906 2.359375 -11.414062 3.046875 -11.71875 C 3.734375 -12.03125 4.585938 -12.1875 5.609375 -12.1875 C 6.328125 -12.1875 7.03125 -12.09375 7.71875 -11.90625 C 8.40625 -11.726562 8.992188 -11.46875 9.484375 -11.125 L 8.921875 -9.75 C 8.410156 -10.070312 7.867188 -10.316406 7.296875 -10.484375 C 6.722656 -10.648438 6.160156 -10.734375 5.609375 -10.734375 C 4.640625 -10.734375 3.910156 -10.550781 3.421875 -10.1875 C 2.929688 -9.832031 2.6875 -9.375 2.6875 -8.8125 C 2.6875 -8.40625 2.820312 -8.070312 3.09375 -7.8125 C 3.375 -7.550781 3.71875 -7.347656 4.125 -7.203125 C 4.53125 -7.054688 5.082031 -6.90625 5.78125 -6.75 C 6.6875 -6.53125 7.414062 -6.3125 7.96875 -6.09375 C 8.519531 -5.875 8.992188 -5.539062 9.390625 -5.09375 C 9.785156 -4.644531 9.984375 -4.039062 9.984375 -3.28125 C 9.984375 -2.65625 9.8125 -2.082031 9.46875 -1.5625 C 9.125 -1.039062 8.601562 -0.625 7.90625 -0.3125 C 7.207031 -0.0078125 6.347656 0.140625 5.328125 0.140625 Z M 5.328125 0.140625 "/></g></g></g><g fill="#2b2b2b" fill-opacity="1"><g transform="translate(151.000336, 243.334495)"><g><path d="M 4.203125 -10.5625 L 0.0625 -10.5625 L 0.0625 -12.046875 L 10.03125 -12.046875 L 10.03125 -10.5625 L 5.90625 -10.5625 L 5.90625 0 L 4.203125 0 Z M 4.203125 -10.5625 "/></g></g></g><g fill="#2b2b2b" fill-opacity="1"><g transform="translate(163.781737, 243.334495)"><g><path d="M 1.8125 -12.046875 L 3.53125 -12.046875 L 3.53125 0 L 1.8125 0 Z M 1.8125 -12.046875 "/></g></g></g><g fill="#2b2b2b" fill-opacity="1"><g transform="translate(171.791643, 243.334495)"><g><path d="M 7.203125 0.140625 C 5.992188 0.140625 4.90625 -0.125 3.9375 -0.65625 C 2.96875 -1.195312 2.207031 -1.929688 1.65625 -2.859375 C 1.101562 -3.796875 0.828125 -4.851562 0.828125 -6.03125 C 0.828125 -7.195312 1.101562 -8.25 1.65625 -9.1875 C 2.207031 -10.125 2.96875 -10.859375 3.9375 -11.390625 C 4.914062 -11.921875 6.007812 -12.1875 7.21875 -12.1875 C 8.15625 -12.1875 9.015625 -12.03125 9.796875 -11.71875 C 10.578125 -11.40625 11.242188 -10.9375 11.796875 -10.3125 L 10.671875 -9.234375 C 9.765625 -10.179688 8.632812 -10.65625 7.28125 -10.65625 C 6.382812 -10.65625 5.570312 -10.453125 4.84375 -10.046875 C 4.125 -9.648438 3.5625 -9.097656 3.15625 -8.390625 C 2.75 -7.679688 2.546875 -6.894531 2.546875 -6.03125 C 2.546875 -5.15625 2.75 -4.363281 3.15625 -3.65625 C 3.5625 -2.945312 4.125 -2.390625 4.84375 -1.984375 C 5.570312 -1.585938 6.382812 -1.390625 7.28125 -1.390625 C 8.625 -1.390625 9.753906 -1.875 10.671875 -2.84375 L 11.796875 -1.75 C 11.242188 -1.132812 10.570312 -0.664062 9.78125 -0.34375 C 9 -0.0195312 8.140625 0.140625 7.203125 0.140625 Z M 7.203125 0.140625 "/></g></g></g><g fill="#2b2b2b" fill-opacity="1"><g transform="translate(186.915718, 243.334495)"><g><path d="M 10.5625 -1.5 L 10.5625 0 L 1.8125 0 L 1.8125 -12.046875 L 10.3125 -12.046875 L 10.3125 -10.5625 L 3.53125 -10.5625 L 3.53125 -6.859375 L 9.578125 -6.859375 L 9.578125 -5.390625 L 3.53125 -5.390625 L 3.53125 -1.5 Z M 10.5625 -1.5 "/></g></g></g><g fill="#2b2b2b" fill-opacity="1"><g transform="translate(201.126838, 243.334495)"><g/></g></g><g fill="#2b2b2b" fill-opacity="1"><g transform="translate(208.430487, 243.334495)"><g><path d="M 12.28125 -12.046875 L 6.984375 0 L 5.28125 0 L -0.015625 -12.046875 L 1.84375 -12.046875 L 6.1875 -2.15625 L 10.5625 -12.046875 Z M 12.28125 -12.046875 "/></g></g></g><g fill="#2b2b2b" fill-opacity="1"><g transform="translate(223.365098, 243.334495)"><g><path d="M 7.25 0.140625 C 6.03125 0.140625 4.929688 -0.125 3.953125 -0.65625 C 2.984375 -1.195312 2.21875 -1.9375 1.65625 -2.875 C 1.101562 -3.8125 0.828125 -4.863281 0.828125 -6.03125 C 0.828125 -7.1875 1.101562 -8.234375 1.65625 -9.171875 C 2.21875 -10.117188 2.984375 -10.859375 3.953125 -11.390625 C 4.929688 -11.921875 6.03125 -12.1875 7.25 -12.1875 C 8.457031 -12.1875 9.546875 -11.921875 10.515625 -11.390625 C 11.492188 -10.859375 12.257812 -10.125 12.8125 -9.1875 C 13.363281 -8.25 13.640625 -7.195312 13.640625 -6.03125 C 13.640625 -4.851562 13.363281 -3.796875 12.8125 -2.859375 C 12.257812 -1.929688 11.492188 -1.195312 10.515625 -0.65625 C 9.546875 -0.125 8.457031 0.140625 7.25 0.140625 Z M 7.25 -1.390625 C 8.132812 -1.390625 8.925781 -1.585938 9.625 -1.984375 C 10.332031 -2.390625 10.890625 -2.945312 11.296875 -3.65625 C 11.710938 -4.363281 11.921875 -5.15625 11.921875 -6.03125 C 11.921875 -6.894531 11.710938 -7.679688 11.296875 -8.390625 C 10.890625 -9.097656 10.332031 -9.648438 9.625 -10.046875 C 8.925781 -10.453125 8.132812 -10.65625 7.25 -10.65625 C 6.363281 -10.65625 5.5625 -10.453125 4.84375 -10.046875 C 4.125 -9.648438 3.5625 -9.097656 3.15625 -8.390625 C 2.75 -7.679688 2.546875 -6.894531 2.546875 -6.03125 C 2.546875 -5.15625 2.75 -4.363281 3.15625 -3.65625 C 3.5625 -2.945312 4.125 -2.390625 4.84375 -1.984375 C 5.5625 -1.585938 6.363281 -1.390625 7.25 -1.390625 Z M 7.25 -1.390625 "/></g></g></g><g fill="#2b2b2b" fill-opacity="1"><g transform="translate(240.504588, 243.334495)"><g><path d="M 5.328125 0.140625 C 4.410156 0.140625 3.53125 0 2.6875 -0.28125 C 1.84375 -0.5625 1.179688 -0.925781 0.703125 -1.375 L 1.34375 -2.71875 C 1.800781 -2.300781 2.390625 -1.960938 3.109375 -1.703125 C 3.828125 -1.453125 4.566406 -1.328125 5.328125 -1.328125 C 6.316406 -1.328125 7.054688 -1.492188 7.546875 -1.828125 C 8.046875 -2.171875 8.296875 -2.625 8.296875 -3.1875 C 8.296875 -3.601562 8.160156 -3.9375 7.890625 -4.1875 C 7.617188 -4.445312 7.285156 -4.644531 6.890625 -4.78125 C 6.492188 -4.925781 5.9375 -5.082031 5.21875 -5.25 C 4.3125 -5.46875 3.578125 -5.6875 3.015625 -5.90625 C 2.460938 -6.125 1.988281 -6.457031 1.59375 -6.90625 C 1.195312 -7.363281 1 -7.976562 1 -8.75 C 1 -9.394531 1.164062 -9.972656 1.5 -10.484375 C 1.84375 -11.003906 2.359375 -11.414062 3.046875 -11.71875 C 3.734375 -12.03125 4.585938 -12.1875 5.609375 -12.1875 C 6.328125 -12.1875 7.03125 -12.09375 7.71875 -11.90625 C 8.40625 -11.726562 8.992188 -11.46875 9.484375 -11.125 L 8.921875 -9.75 C 8.410156 -10.070312 7.867188 -10.316406 7.296875 -10.484375 C 6.722656 -10.648438 6.160156 -10.734375 5.609375 -10.734375 C 4.640625 -10.734375 3.910156 -10.550781 3.421875 -10.1875 C 2.929688 -9.832031 2.6875 -9.375 2.6875 -8.8125 C 2.6875 -8.40625 2.820312 -8.070312 3.09375 -7.8125 C 3.375 -7.550781 3.71875 -7.347656 4.125 -7.203125 C 4.53125 -7.054688 5.082031 -6.90625 5.78125 -6.75 C 6.6875 -6.53125 7.414062 -6.3125 7.96875 -6.09375 C 8.519531 -5.875 8.992188 -5.539062 9.390625 -5.09375 C 9.785156 -4.644531 9.984375 -4.039062 9.984375 -3.28125 C 9.984375 -2.65625 9.8125 -2.082031 9.46875 -1.5625 C 9.125 -1.039062 8.601562 -0.625 7.90625 -0.3125 C 7.207031 -0.0078125 6.347656 0.140625 5.328125 0.140625 Z M 5.328125 0.140625 "/></g></g></g><g fill="#2b2b2b" fill-opacity="1"><g transform="translate(253.871663, 243.334495)"><g><path d="M 5.328125 0.140625 C 4.410156 0.140625 3.53125 0 2.6875 -0.28125 C 1.84375 -0.5625 1.179688 -0.925781 0.703125 -1.375 L 1.34375 -2.71875 C 1.800781 -2.300781 2.390625 -1.960938 3.109375 -1.703125 C 3.828125 -1.453125 4.566406 -1.328125 5.328125 -1.328125 C 6.316406 -1.328125 7.054688 -1.492188 7.546875 -1.828125 C 8.046875 -2.171875 8.296875 -2.625 8.296875 -3.1875 C 8.296875 -3.601562 8.160156 -3.9375 7.890625 -4.1875 C 7.617188 -4.445312 7.285156 -4.644531 6.890625 -4.78125 C 6.492188 -4.925781 5.9375 -5.082031 5.21875 -5.25 C 4.3125 -5.46875 3.578125 -5.6875 3.015625 -5.90625 C 2.460938 -6.125 1.988281 -6.457031 1.59375 -6.90625 C 1.195312 -7.363281 1 -7.976562 1 -8.75 C 1 -9.394531 1.164062 -9.972656 1.5 -10.484375 C 1.84375 -11.003906 2.359375 -11.414062 3.046875 -11.71875 C 3.734375 -12.03125 4.585938 -12.1875 5.609375 -12.1875 C 6.328125 -12.1875 7.03125 -12.09375 7.71875 -11.90625 C 8.40625 -11.726562 8.992188 -11.46875 9.484375 -11.125 L 8.921875 -9.75 C 8.410156 -10.070312 7.867188 -10.316406 7.296875 -10.484375 C 6.722656 -10.648438 6.160156 -10.734375 5.609375 -10.734375 C 4.640625 -10.734375 3.910156 -10.550781 3.421875 -10.1875 C 2.929688 -9.832031 2.6875 -9.375 2.6875 -8.8125 C 2.6875 -8.40625 2.820312 -8.070312 3.09375 -7.8125 C 3.375 -7.550781 3.71875 -7.347656 4.125 -7.203125 C 4.53125 -7.054688 5.082031 -6.90625 5.78125 -6.75 C 6.6875 -6.53125 7.414062 -6.3125 7.96875 -6.09375 C 8.519531 -5.875 8.992188 -5.539062 9.390625 -5.09375 C 9.785156 -4.644531 9.984375 -4.039062 9.984375 -3.28125 C 9.984375 -2.65625 9.8125 -2.082031 9.46875 -1.5625 C 9.125 -1.039062 8.601562 -0.625 7.90625 -0.3125 C 7.207031 -0.0078125 6.347656 0.140625 5.328125 0.140625 Z M 5.328125 0.140625 "/></g></g></g><g fill="#2b2b2b" fill-opacity="1"><g transform="translate(200.640419, 260.074308)"><g><path d="M 5.015625 -3.015625 L 5.828125 -3.015625 L 5.828125 -0.6875 C 5.535156 -0.445312 5.191406 -0.257812 4.796875 -0.125 C 4.410156 0 4.003906 0.0625 3.578125 0.0625 C 2.972656 0.0625 2.429688 -0.0664062 1.953125 -0.328125 C 1.472656 -0.585938 1.09375 -0.945312 0.8125 -1.40625 C 0.539062 -1.875 0.40625 -2.394531 0.40625 -2.96875 C 0.40625 -3.550781 0.539062 -4.070312 0.8125 -4.53125 C 1.09375 -5 1.472656 -5.363281 1.953125 -5.625 C 2.441406 -5.882812 2.988281 -6.015625 3.59375 -6.015625 C 4.070312 -6.015625 4.503906 -5.9375 4.890625 -5.78125 C 5.273438 -5.625 5.601562 -5.394531 5.875 -5.09375 L 5.359375 -4.578125 C 4.878906 -5.035156 4.300781 -5.265625 3.625 -5.265625 C 3.175781 -5.265625 2.769531 -5.164062 2.40625 -4.96875 C 2.050781 -4.769531 1.769531 -4.492188 1.5625 -4.140625 C 1.363281 -3.796875 1.265625 -3.40625 1.265625 -2.96875 C 1.265625 -2.539062 1.363281 -2.148438 1.5625 -1.796875 C 1.769531 -1.453125 2.050781 -1.179688 2.40625 -0.984375 C 2.769531 -0.785156 3.175781 -0.6875 3.625 -0.6875 C 4.15625 -0.6875 4.617188 -0.816406 5.015625 -1.078125 Z M 5.015625 -3.015625 "/></g></g></g><g fill="#2b2b2b" fill-opacity="1"><g transform="translate(209.630207, 260.074308)"><g><path d="M 2.40625 -4.546875 C 3.03125 -4.546875 3.507812 -4.390625 3.84375 -4.078125 C 4.175781 -3.773438 4.34375 -3.320312 4.34375 -2.71875 L 4.34375 0 L 3.5625 0 L 3.5625 -0.59375 C 3.425781 -0.382812 3.234375 -0.222656 2.984375 -0.109375 C 2.734375 -0.00390625 2.4375 0.046875 2.09375 0.046875 C 1.582031 0.046875 1.175781 -0.0703125 0.875 -0.3125 C 0.570312 -0.5625 0.421875 -0.882812 0.421875 -1.28125 C 0.421875 -1.675781 0.566406 -1.992188 0.859375 -2.234375 C 1.148438 -2.472656 1.609375 -2.59375 2.234375 -2.59375 L 3.53125 -2.59375 L 3.53125 -2.75 C 3.53125 -3.101562 3.425781 -3.375 3.21875 -3.5625 C 3.019531 -3.75 2.722656 -3.84375 2.328125 -3.84375 C 2.054688 -3.84375 1.789062 -3.796875 1.53125 -3.703125 C 1.28125 -3.617188 1.066406 -3.503906 0.890625 -3.359375 L 0.546875 -3.96875 C 0.785156 -4.15625 1.066406 -4.296875 1.390625 -4.390625 C 1.710938 -4.492188 2.050781 -4.546875 2.40625 -4.546875 Z M 2.234375 -0.578125 C 2.535156 -0.578125 2.800781 -0.644531 3.03125 -0.78125 C 3.257812 -0.925781 3.425781 -1.125 3.53125 -1.375 L 3.53125 -2 L 2.265625 -2 C 1.578125 -2 1.234375 -1.769531 1.234375 -1.3125 C 1.234375 -1.082031 1.320312 -0.898438 1.5 -0.765625 C 1.675781 -0.640625 1.921875 -0.578125 2.234375 -0.578125 Z M 2.234375 -0.578125 "/></g></g></g><g fill="#2b2b2b" fill-opacity="1"><g transform="translate(217.140123, 260.074308)"><g><path d="M 6.40625 -4.546875 C 6.976562 -4.546875 7.425781 -4.378906 7.75 -4.046875 C 8.082031 -3.722656 8.25 -3.238281 8.25 -2.59375 L 8.25 0 L 7.4375 0 L 7.4375 -2.5 C 7.4375 -2.9375 7.332031 -3.265625 7.125 -3.484375 C 6.925781 -3.703125 6.640625 -3.8125 6.265625 -3.8125 C 5.859375 -3.8125 5.53125 -3.679688 5.28125 -3.421875 C 5.039062 -3.171875 4.921875 -2.804688 4.921875 -2.328125 L 4.921875 0 L 4.109375 0 L 4.109375 -2.5 C 4.109375 -2.9375 4.003906 -3.265625 3.796875 -3.484375 C 3.597656 -3.703125 3.3125 -3.8125 2.9375 -3.8125 C 2.53125 -3.8125 2.203125 -3.679688 1.953125 -3.421875 C 1.710938 -3.171875 1.59375 -2.804688 1.59375 -2.328125 L 1.59375 0 L 0.78125 0 L 0.78125 -4.5 L 1.5625 -4.5 L 1.5625 -3.828125 C 1.71875 -4.066406 1.925781 -4.242188 2.1875 -4.359375 C 2.457031 -4.484375 2.765625 -4.546875 3.109375 -4.546875 C 3.460938 -4.546875 3.773438 -4.472656 4.046875 -4.328125 C 4.316406 -4.191406 4.523438 -3.988281 4.671875 -3.71875 C 4.847656 -3.976562 5.085938 -4.179688 5.390625 -4.328125 C 5.691406 -4.472656 6.03125 -4.546875 6.40625 -4.546875 Z M 6.40625 -4.546875 "/></g></g></g><g fill="#2b2b2b" fill-opacity="1"><g transform="translate(228.553835, 260.074308)"><g><path d="M 4.84375 -2.234375 C 4.84375 -2.171875 4.835938 -2.085938 4.828125 -1.984375 L 1.171875 -1.984375 C 1.222656 -1.585938 1.394531 -1.265625 1.6875 -1.015625 C 1.988281 -0.773438 2.363281 -0.65625 2.8125 -0.65625 C 3.34375 -0.65625 3.773438 -0.835938 4.109375 -1.203125 L 4.5625 -0.6875 C 4.351562 -0.445312 4.097656 -0.265625 3.796875 -0.140625 C 3.492188 -0.015625 3.15625 0.046875 2.78125 0.046875 C 2.300781 0.046875 1.875 -0.046875 1.5 -0.234375 C 1.132812 -0.429688 0.851562 -0.707031 0.65625 -1.0625 C 0.457031 -1.414062 0.359375 -1.8125 0.359375 -2.25 C 0.359375 -2.6875 0.453125 -3.082031 0.640625 -3.4375 C 0.835938 -3.789062 1.109375 -4.0625 1.453125 -4.25 C 1.796875 -4.445312 2.1875 -4.546875 2.625 -4.546875 C 3.050781 -4.546875 3.429688 -4.445312 3.765625 -4.25 C 4.109375 -4.0625 4.375 -3.789062 4.5625 -3.4375 C 4.75 -3.082031 4.84375 -2.679688 4.84375 -2.234375 Z M 2.625 -3.859375 C 2.226562 -3.859375 1.894531 -3.738281 1.625 -3.5 C 1.363281 -3.257812 1.210938 -2.945312 1.171875 -2.5625 L 4.0625 -2.5625 C 4.019531 -2.945312 3.863281 -3.257812 3.59375 -3.5 C 3.332031 -3.738281 3.007812 -3.859375 2.625 -3.859375 Z M 2.625 -3.859375 "/></g></g></g><g fill="#2b2b2b" fill-opacity="1"><g transform="translate(236.182819, 260.074308)"><g/></g></g><g fill="#2b2b2b" fill-opacity="1"><g transform="translate(240.894583, 260.074308)"><g><path d="M 0.890625 -5.953125 L 3.40625 -5.953125 C 4.03125 -5.953125 4.585938 -5.828125 5.078125 -5.578125 C 5.566406 -5.328125 5.941406 -4.972656 6.203125 -4.515625 C 6.472656 -4.066406 6.609375 -3.550781 6.609375 -2.96875 C 6.609375 -2.382812 6.472656 -1.867188 6.203125 -1.421875 C 5.941406 -0.972656 5.566406 -0.625 5.078125 -0.375 C 4.585938 -0.125 4.03125 0 3.40625 0 L 0.890625 0 Z M 3.34375 -0.734375 C 3.832031 -0.734375 4.257812 -0.828125 4.625 -1.015625 C 4.988281 -1.203125 5.269531 -1.460938 5.46875 -1.796875 C 5.664062 -2.140625 5.765625 -2.53125 5.765625 -2.96875 C 5.765625 -3.414062 5.664062 -3.804688 5.46875 -4.140625 C 5.269531 -4.484375 4.988281 -4.742188 4.625 -4.921875 C 4.257812 -5.109375 3.832031 -5.203125 3.34375 -5.203125 L 1.75 -5.203125 L 1.75 -0.734375 Z M 3.34375 -0.734375 "/></g></g></g><g fill="#2b2b2b" fill-opacity="1"><g transform="translate(250.343634, 260.074308)"><g><path d="M 4.84375 -2.234375 C 4.84375 -2.171875 4.835938 -2.085938 4.828125 -1.984375 L 1.171875 -1.984375 C 1.222656 -1.585938 1.394531 -1.265625 1.6875 -1.015625 C 1.988281 -0.773438 2.363281 -0.65625 2.8125 -0.65625 C 3.34375 -0.65625 3.773438 -0.835938 4.109375 -1.203125 L 4.5625 -0.6875 C 4.351562 -0.445312 4.097656 -0.265625 3.796875 -0.140625 C 3.492188 -0.015625 3.15625 0.046875 2.78125 0.046875 C 2.300781 0.046875 1.875 -0.046875 1.5 -0.234375 C 1.132812 -0.429688 0.851562 -0.707031 0.65625 -1.0625 C 0.457031 -1.414062 0.359375 -1.8125 0.359375 -2.25 C 0.359375 -2.6875 0.453125 -3.082031 0.640625 -3.4375 C 0.835938 -3.789062 1.109375 -4.0625 1.453125 -4.25 C 1.796875 -4.445312 2.1875 -4.546875 2.625 -4.546875 C 3.050781 -4.546875 3.429688 -4.445312 3.765625 -4.25 C 4.109375 -4.0625 4.375 -3.789062 4.5625 -3.4375 C 4.75 -3.082031 4.84375 -2.679688 4.84375 -2.234375 Z M 2.625 -3.859375 C 2.226562 -3.859375 1.894531 -3.738281 1.625 -3.5 C 1.363281 -3.257812 1.210938 -2.945312 1.171875 -2.5625 L 4.0625 -2.5625 C 4.019531 -2.945312 3.863281 -3.257812 3.59375 -3.5 C 3.332031 -3.738281 3.007812 -3.859375 2.625 -3.859375 Z M 2.625 -3.859375 "/></g></g></g><g fill="#2b2b2b" fill-opacity="1"><g transform="translate(257.972618, 260.074308)"><g><path d="M 4.765625 -4.5 L 2.78125 0 L 1.953125 0 L -0.015625 -4.5 L 0.828125 -4.5 L 2.375 -0.890625 L 3.96875 -4.5 Z M 4.765625 -4.5 "/></g></g></g></svg>